<svg id="Componente_4_1" data-name="Componente 4 – 1" xmlns="http://www.w3.org/2000/svg" xmlns:xlink="http://www.w3.org/1999/xlink" width="154.252" height="154.252" viewBox="0 0 154.252 154.252">
  <defs>
    <clipPath id="clip-path">
      <circle id="Elipse_134" data-name="Elipse 134" cx="77.126" cy="77.126" r="77.126" fill="#bfbfbf" opacity="0.21"/>
    </clipPath>
  </defs>
  <g id="Grupo_29" data-name="Grupo 29" opacity="0.21">
    <g id="Grupo_28" data-name="Grupo 28" clip-path="url(#clip-path)">
      <g id="Grupo_14" data-name="Grupo 14" transform="translate(-49.026 7.667)">
        <g id="Grupo_5" data-name="Grupo 5">
          <g id="Grupo_2" data-name="Grupo 2" transform="translate(0 33.271)">
            <circle id="Elipse_8" data-name="Elipse 8" cx="3.025" cy="3.025" r="3.025" fill="#bfbfbf"/>
            <circle id="Elipse_9" data-name="Elipse 9" cx="3.025" cy="3.025" r="3.025" transform="translate(18.903)" fill="#bfbfbf"/>
            <circle id="Elipse_10" data-name="Elipse 10" cx="3.025" cy="3.025" r="3.025" transform="translate(37.809)" fill="#bfbfbf"/>
            <circle id="Elipse_11" data-name="Elipse 11" cx="3.025" cy="3.025" r="3.025" transform="translate(56.712)" fill="#bfbfbf"/>
            <circle id="Elipse_12" data-name="Elipse 12" cx="3.025" cy="3.025" r="3.025" transform="translate(75.616)" fill="#bfbfbf"/>
            <circle id="Elipse_13" data-name="Elipse 13" cx="3.025" cy="3.025" r="3.025" transform="translate(94.523)" fill="#bfbfbf"/>
            <circle id="Elipse_14" data-name="Elipse 14" cx="3.025" cy="3.025" r="3.025" transform="translate(113.425)" fill="#bfbfbf"/>
          </g>
          <g id="Grupo_3" data-name="Grupo 3" transform="translate(0 16.636)">
            <circle id="Elipse_15" data-name="Elipse 15" cx="3.025" cy="3.025" r="3.025" fill="#bfbfbf"/>
            <circle id="Elipse_16" data-name="Elipse 16" cx="3.025" cy="3.025" r="3.025" transform="translate(18.903)" fill="#bfbfbf"/>
            <circle id="Elipse_17" data-name="Elipse 17" cx="3.025" cy="3.025" r="3.025" transform="translate(37.809)" fill="#bfbfbf"/>
            <circle id="Elipse_18" data-name="Elipse 18" cx="3.025" cy="3.025" r="3.025" transform="translate(56.712)" fill="#bfbfbf"/>
            <circle id="Elipse_19" data-name="Elipse 19" cx="3.025" cy="3.025" r="3.025" transform="translate(75.616)" fill="#bfbfbf"/>
            <circle id="Elipse_20" data-name="Elipse 20" cx="3.025" cy="3.025" r="3.025" transform="translate(94.523)" fill="#bfbfbf"/>
            <circle id="Elipse_21" data-name="Elipse 21" cx="3.025" cy="3.025" r="3.025" transform="translate(113.425)" fill="#bfbfbf"/>
          </g>
          <g id="Grupo_4" data-name="Grupo 4">
            <circle id="Elipse_22" data-name="Elipse 22" cx="3.025" cy="3.025" r="3.025" fill="#bfbfbf"/>
            <circle id="Elipse_23" data-name="Elipse 23" cx="3.025" cy="3.025" r="3.025" transform="translate(18.903)" fill="#bfbfbf"/>
            <circle id="Elipse_24" data-name="Elipse 24" cx="3.025" cy="3.025" r="3.025" transform="translate(37.809)" fill="#bfbfbf"/>
            <circle id="Elipse_25" data-name="Elipse 25" cx="3.025" cy="3.025" r="3.025" transform="translate(56.712)" fill="#bfbfbf"/>
            <circle id="Elipse_26" data-name="Elipse 26" cx="3.025" cy="3.025" r="3.025" transform="translate(75.616)" fill="#bfbfbf"/>
            <circle id="Elipse_27" data-name="Elipse 27" cx="3.025" cy="3.025" r="3.025" transform="translate(94.523)" fill="#bfbfbf"/>
            <circle id="Elipse_28" data-name="Elipse 28" cx="3.025" cy="3.025" r="3.025" transform="translate(113.425)" fill="#bfbfbf"/>
          </g>
        </g>
        <g id="Grupo_9" data-name="Grupo 9" transform="translate(0 49.444)">
          <g id="Grupo_6" data-name="Grupo 6" transform="translate(0 33.271)">
            <circle id="Elipse_29" data-name="Elipse 29" cx="3.025" cy="3.025" r="3.025" fill="#bfbfbf"/>
            <circle id="Elipse_30" data-name="Elipse 30" cx="3.025" cy="3.025" r="3.025" transform="translate(18.903)" fill="#bfbfbf"/>
            <circle id="Elipse_31" data-name="Elipse 31" cx="3.025" cy="3.025" r="3.025" transform="translate(37.809)" fill="#bfbfbf"/>
            <circle id="Elipse_32" data-name="Elipse 32" cx="3.025" cy="3.025" r="3.025" transform="translate(56.712)" fill="#bfbfbf"/>
            <circle id="Elipse_33" data-name="Elipse 33" cx="3.025" cy="3.025" r="3.025" transform="translate(75.616)" fill="#bfbfbf"/>
            <circle id="Elipse_34" data-name="Elipse 34" cx="3.025" cy="3.025" r="3.025" transform="translate(94.523)" fill="#bfbfbf"/>
            <circle id="Elipse_35" data-name="Elipse 35" cx="3.025" cy="3.025" r="3.025" transform="translate(113.425)" fill="#bfbfbf"/>
          </g>
          <g id="Grupo_7" data-name="Grupo 7" transform="translate(0 16.636)">
            <circle id="Elipse_36" data-name="Elipse 36" cx="3.025" cy="3.025" r="3.025" fill="#bfbfbf"/>
            <circle id="Elipse_37" data-name="Elipse 37" cx="3.025" cy="3.025" r="3.025" transform="translate(18.903)" fill="#bfbfbf"/>
            <circle id="Elipse_38" data-name="Elipse 38" cx="3.025" cy="3.025" r="3.025" transform="translate(37.809)" fill="#bfbfbf"/>
            <circle id="Elipse_39" data-name="Elipse 39" cx="3.025" cy="3.025" r="3.025" transform="translate(56.712)" fill="#bfbfbf"/>
            <circle id="Elipse_40" data-name="Elipse 40" cx="3.025" cy="3.025" r="3.025" transform="translate(75.616)" fill="#bfbfbf"/>
            <circle id="Elipse_41" data-name="Elipse 41" cx="3.025" cy="3.025" r="3.025" transform="translate(94.523)" fill="#bfbfbf"/>
            <circle id="Elipse_42" data-name="Elipse 42" cx="3.025" cy="3.025" r="3.025" transform="translate(113.425)" fill="#bfbfbf"/>
          </g>
          <g id="Grupo_8" data-name="Grupo 8">
            <circle id="Elipse_43" data-name="Elipse 43" cx="3.025" cy="3.025" r="3.025" fill="#bfbfbf"/>
            <circle id="Elipse_44" data-name="Elipse 44" cx="3.025" cy="3.025" r="3.025" transform="translate(18.903)" fill="#bfbfbf"/>
            <circle id="Elipse_45" data-name="Elipse 45" cx="3.025" cy="3.025" r="3.025" transform="translate(37.809)" fill="#bfbfbf"/>
            <circle id="Elipse_46" data-name="Elipse 46" cx="3.025" cy="3.025" r="3.025" transform="translate(56.712)" fill="#bfbfbf"/>
            <circle id="Elipse_47" data-name="Elipse 47" cx="3.025" cy="3.025" r="3.025" transform="translate(75.616)" fill="#bfbfbf"/>
            <circle id="Elipse_48" data-name="Elipse 48" cx="3.025" cy="3.025" r="3.025" transform="translate(94.523)" fill="#bfbfbf"/>
            <circle id="Elipse_49" data-name="Elipse 49" cx="3.025" cy="3.025" r="3.025" transform="translate(113.425)" fill="#bfbfbf"/>
          </g>
        </g>
        <g id="Grupo_13" data-name="Grupo 13" transform="translate(0 98.883)">
          <g id="Grupo_10" data-name="Grupo 10" transform="translate(0 33.27)">
            <circle id="Elipse_50" data-name="Elipse 50" cx="3.025" cy="3.025" r="3.025" fill="#bfbfbf"/>
            <circle id="Elipse_51" data-name="Elipse 51" cx="3.025" cy="3.025" r="3.025" transform="translate(18.903)" fill="#bfbfbf"/>
            <circle id="Elipse_52" data-name="Elipse 52" cx="3.025" cy="3.025" r="3.025" transform="translate(37.809)" fill="#bfbfbf"/>
            <circle id="Elipse_53" data-name="Elipse 53" cx="3.025" cy="3.025" r="3.025" transform="translate(56.712)" fill="#bfbfbf"/>
            <circle id="Elipse_54" data-name="Elipse 54" cx="3.025" cy="3.025" r="3.025" transform="translate(75.616)" fill="#bfbfbf"/>
            <circle id="Elipse_55" data-name="Elipse 55" cx="3.025" cy="3.025" r="3.025" transform="translate(94.523)" fill="#bfbfbf"/>
            <circle id="Elipse_56" data-name="Elipse 56" cx="3.025" cy="3.025" r="3.025" transform="translate(113.425)" fill="#bfbfbf"/>
          </g>
          <g id="Grupo_11" data-name="Grupo 11" transform="translate(0 16.643)">
            <circle id="Elipse_57" data-name="Elipse 57" cx="3.025" cy="3.025" r="3.025" fill="#bfbfbf"/>
            <circle id="Elipse_58" data-name="Elipse 58" cx="3.025" cy="3.025" r="3.025" transform="translate(18.903)" fill="#bfbfbf"/>
            <circle id="Elipse_59" data-name="Elipse 59" cx="3.025" cy="3.025" r="3.025" transform="translate(37.809)" fill="#bfbfbf"/>
            <circle id="Elipse_60" data-name="Elipse 60" cx="3.025" cy="3.025" r="3.025" transform="translate(56.712)" fill="#bfbfbf"/>
            <circle id="Elipse_61" data-name="Elipse 61" cx="3.025" cy="3.025" r="3.025" transform="translate(75.616)" fill="#bfbfbf"/>
            <circle id="Elipse_62" data-name="Elipse 62" cx="3.025" cy="3.025" r="3.025" transform="translate(94.523)" fill="#bfbfbf"/>
            <circle id="Elipse_63" data-name="Elipse 63" cx="3.025" cy="3.025" r="3.025" transform="translate(113.425)" fill="#bfbfbf"/>
          </g>
          <g id="Grupo_12" data-name="Grupo 12" transform="translate(0.002)">
            <circle id="Elipse_64" data-name="Elipse 64" cx="3.024" cy="3.024" r="3.024" fill="#bfbfbf"/>
            <circle id="Elipse_65" data-name="Elipse 65" cx="3.024" cy="3.024" r="3.024" transform="translate(18.903)" fill="#bfbfbf"/>
            <circle id="Elipse_66" data-name="Elipse 66" cx="3.024" cy="3.024" r="3.024" transform="translate(37.809)" fill="#bfbfbf"/>
            <circle id="Elipse_67" data-name="Elipse 67" cx="3.024" cy="3.024" r="3.024" transform="translate(56.712)" fill="#bfbfbf"/>
            <circle id="Elipse_68" data-name="Elipse 68" cx="3.024" cy="3.024" r="3.024" transform="translate(75.616)" fill="#bfbfbf"/>
            <circle id="Elipse_69" data-name="Elipse 69" cx="3.024" cy="3.024" r="3.024" transform="translate(94.523)" fill="#bfbfbf"/>
            <circle id="Elipse_70" data-name="Elipse 70" cx="3.024" cy="3.024" r="3.024" transform="translate(113.425)" fill="#bfbfbf"/>
          </g>
        </g>
      </g>
      <g id="Grupo_27" data-name="Grupo 27" transform="translate(79.018 7.667)">
        <g id="Grupo_18" data-name="Grupo 18">
          <g id="Grupo_15" data-name="Grupo 15" transform="translate(0 33.271)">
            <circle id="Elipse_71" data-name="Elipse 71" cx="3.025" cy="3.025" r="3.025" fill="#bfbfbf"/>
            <circle id="Elipse_72" data-name="Elipse 72" cx="3.025" cy="3.025" r="3.025" transform="translate(18.905)" fill="#bfbfbf"/>
            <circle id="Elipse_73" data-name="Elipse 73" cx="3.025" cy="3.025" r="3.025" transform="translate(37.809)" fill="#bfbfbf"/>
            <circle id="Elipse_74" data-name="Elipse 74" cx="3.025" cy="3.025" r="3.025" transform="translate(56.712)" fill="#bfbfbf"/>
            <circle id="Elipse_75" data-name="Elipse 75" cx="3.025" cy="3.025" r="3.025" transform="translate(75.618)" fill="#bfbfbf"/>
            <circle id="Elipse_76" data-name="Elipse 76" cx="3.025" cy="3.025" r="3.025" transform="translate(94.523)" fill="#bfbfbf"/>
            <circle id="Elipse_77" data-name="Elipse 77" cx="3.025" cy="3.025" r="3.025" transform="translate(113.425)" fill="#bfbfbf"/>
          </g>
          <g id="Grupo_16" data-name="Grupo 16" transform="translate(0 16.636)">
            <circle id="Elipse_78" data-name="Elipse 78" cx="3.025" cy="3.025" r="3.025" fill="#bfbfbf"/>
            <circle id="Elipse_79" data-name="Elipse 79" cx="3.025" cy="3.025" r="3.025" transform="translate(18.905)" fill="#bfbfbf"/>
            <circle id="Elipse_80" data-name="Elipse 80" cx="3.025" cy="3.025" r="3.025" transform="translate(37.809)" fill="#bfbfbf"/>
            <circle id="Elipse_81" data-name="Elipse 81" cx="3.025" cy="3.025" r="3.025" transform="translate(56.712)" fill="#bfbfbf"/>
            <circle id="Elipse_82" data-name="Elipse 82" cx="3.025" cy="3.025" r="3.025" transform="translate(75.618)" fill="#bfbfbf"/>
            <circle id="Elipse_83" data-name="Elipse 83" cx="3.025" cy="3.025" r="3.025" transform="translate(94.523)" fill="#bfbfbf"/>
            <circle id="Elipse_84" data-name="Elipse 84" cx="3.025" cy="3.025" r="3.025" transform="translate(113.425)" fill="#bfbfbf"/>
          </g>
          <g id="Grupo_17" data-name="Grupo 17">
            <circle id="Elipse_85" data-name="Elipse 85" cx="3.025" cy="3.025" r="3.025" fill="#bfbfbf"/>
            <circle id="Elipse_86" data-name="Elipse 86" cx="3.025" cy="3.025" r="3.025" transform="translate(18.905)" fill="#bfbfbf"/>
            <circle id="Elipse_87" data-name="Elipse 87" cx="3.025" cy="3.025" r="3.025" transform="translate(37.809)" fill="#bfbfbf"/>
            <circle id="Elipse_88" data-name="Elipse 88" cx="3.025" cy="3.025" r="3.025" transform="translate(56.712)" fill="#bfbfbf"/>
            <circle id="Elipse_89" data-name="Elipse 89" cx="3.025" cy="3.025" r="3.025" transform="translate(75.618)" fill="#bfbfbf"/>
            <circle id="Elipse_90" data-name="Elipse 90" cx="3.025" cy="3.025" r="3.025" transform="translate(94.523)" fill="#bfbfbf"/>
            <circle id="Elipse_91" data-name="Elipse 91" cx="3.025" cy="3.025" r="3.025" transform="translate(113.425)" fill="#bfbfbf"/>
          </g>
        </g>
        <g id="Grupo_22" data-name="Grupo 22" transform="translate(0 49.444)">
          <g id="Grupo_19" data-name="Grupo 19" transform="translate(0 33.271)">
            <circle id="Elipse_92" data-name="Elipse 92" cx="3.025" cy="3.025" r="3.025" fill="#bfbfbf"/>
            <circle id="Elipse_93" data-name="Elipse 93" cx="3.025" cy="3.025" r="3.025" transform="translate(18.905)" fill="#bfbfbf"/>
            <circle id="Elipse_94" data-name="Elipse 94" cx="3.025" cy="3.025" r="3.025" transform="translate(37.809)" fill="#bfbfbf"/>
            <circle id="Elipse_95" data-name="Elipse 95" cx="3.025" cy="3.025" r="3.025" transform="translate(56.712)" fill="#bfbfbf"/>
            <circle id="Elipse_96" data-name="Elipse 96" cx="3.025" cy="3.025" r="3.025" transform="translate(75.618)" fill="#bfbfbf"/>
            <circle id="Elipse_97" data-name="Elipse 97" cx="3.025" cy="3.025" r="3.025" transform="translate(94.523)" fill="#bfbfbf"/>
            <circle id="Elipse_98" data-name="Elipse 98" cx="3.025" cy="3.025" r="3.025" transform="translate(113.425)" fill="#bfbfbf"/>
          </g>
          <g id="Grupo_20" data-name="Grupo 20" transform="translate(0 16.636)">
            <circle id="Elipse_99" data-name="Elipse 99" cx="3.025" cy="3.025" r="3.025" fill="#bfbfbf"/>
            <circle id="Elipse_100" data-name="Elipse 100" cx="3.025" cy="3.025" r="3.025" transform="translate(18.905)" fill="#bfbfbf"/>
            <circle id="Elipse_101" data-name="Elipse 101" cx="3.025" cy="3.025" r="3.025" transform="translate(37.809)" fill="#bfbfbf"/>
            <circle id="Elipse_102" data-name="Elipse 102" cx="3.025" cy="3.025" r="3.025" transform="translate(56.712)" fill="#bfbfbf"/>
            <circle id="Elipse_103" data-name="Elipse 103" cx="3.025" cy="3.025" r="3.025" transform="translate(75.618)" fill="#bfbfbf"/>
            <circle id="Elipse_104" data-name="Elipse 104" cx="3.025" cy="3.025" r="3.025" transform="translate(94.523)" fill="#bfbfbf"/>
            <circle id="Elipse_105" data-name="Elipse 105" cx="3.025" cy="3.025" r="3.025" transform="translate(113.425)" fill="#bfbfbf"/>
          </g>
          <g id="Grupo_21" data-name="Grupo 21">
            <circle id="Elipse_106" data-name="Elipse 106" cx="3.025" cy="3.025" r="3.025" fill="#bfbfbf"/>
            <circle id="Elipse_107" data-name="Elipse 107" cx="3.025" cy="3.025" r="3.025" transform="translate(18.905)" fill="#bfbfbf"/>
            <circle id="Elipse_108" data-name="Elipse 108" cx="3.025" cy="3.025" r="3.025" transform="translate(37.809)" fill="#bfbfbf"/>
            <circle id="Elipse_109" data-name="Elipse 109" cx="3.025" cy="3.025" r="3.025" transform="translate(56.712)" fill="#bfbfbf"/>
            <circle id="Elipse_110" data-name="Elipse 110" cx="3.025" cy="3.025" r="3.025" transform="translate(75.618)" fill="#bfbfbf"/>
            <circle id="Elipse_111" data-name="Elipse 111" cx="3.025" cy="3.025" r="3.025" transform="translate(94.523)" fill="#bfbfbf"/>
            <circle id="Elipse_112" data-name="Elipse 112" cx="3.025" cy="3.025" r="3.025" transform="translate(113.425)" fill="#bfbfbf"/>
          </g>
        </g>
        <g id="Grupo_26" data-name="Grupo 26" transform="translate(0 98.883)">
          <g id="Grupo_23" data-name="Grupo 23" transform="translate(0 33.27)">
            <circle id="Elipse_113" data-name="Elipse 113" cx="3.025" cy="3.025" r="3.025" fill="#bfbfbf"/>
            <circle id="Elipse_114" data-name="Elipse 114" cx="3.025" cy="3.025" r="3.025" transform="translate(18.905)" fill="#bfbfbf"/>
            <circle id="Elipse_115" data-name="Elipse 115" cx="3.025" cy="3.025" r="3.025" transform="translate(37.809)" fill="#bfbfbf"/>
            <circle id="Elipse_116" data-name="Elipse 116" cx="3.025" cy="3.025" r="3.025" transform="translate(56.712)" fill="#bfbfbf"/>
            <circle id="Elipse_117" data-name="Elipse 117" cx="3.025" cy="3.025" r="3.025" transform="translate(75.618)" fill="#bfbfbf"/>
            <circle id="Elipse_118" data-name="Elipse 118" cx="3.025" cy="3.025" r="3.025" transform="translate(94.523)" fill="#bfbfbf"/>
            <circle id="Elipse_119" data-name="Elipse 119" cx="3.025" cy="3.025" r="3.025" transform="translate(113.425)" fill="#bfbfbf"/>
          </g>
          <g id="Grupo_24" data-name="Grupo 24" transform="translate(0 16.643)">
            <circle id="Elipse_120" data-name="Elipse 120" cx="3.025" cy="3.025" r="3.025" fill="#bfbfbf"/>
            <circle id="Elipse_121" data-name="Elipse 121" cx="3.025" cy="3.025" r="3.025" transform="translate(18.905)" fill="#bfbfbf"/>
            <circle id="Elipse_122" data-name="Elipse 122" cx="3.025" cy="3.025" r="3.025" transform="translate(37.809)" fill="#bfbfbf"/>
            <circle id="Elipse_123" data-name="Elipse 123" cx="3.025" cy="3.025" r="3.025" transform="translate(56.712)" fill="#bfbfbf"/>
            <circle id="Elipse_124" data-name="Elipse 124" cx="3.025" cy="3.025" r="3.025" transform="translate(75.618)" fill="#bfbfbf"/>
            <circle id="Elipse_125" data-name="Elipse 125" cx="3.025" cy="3.025" r="3.025" transform="translate(94.523)" fill="#bfbfbf"/>
            <circle id="Elipse_126" data-name="Elipse 126" cx="3.025" cy="3.025" r="3.025" transform="translate(113.425)" fill="#bfbfbf"/>
          </g>
          <g id="Grupo_25" data-name="Grupo 25" transform="translate(0.002)">
            <circle id="Elipse_127" data-name="Elipse 127" cx="3.024" cy="3.024" r="3.024" fill="#bfbfbf"/>
            <circle id="Elipse_128" data-name="Elipse 128" cx="3.024" cy="3.024" r="3.024" transform="translate(18.905)" fill="#bfbfbf"/>
            <circle id="Elipse_129" data-name="Elipse 129" cx="3.024" cy="3.024" r="3.024" transform="translate(37.809)" fill="#bfbfbf"/>
            <circle id="Elipse_130" data-name="Elipse 130" cx="3.024" cy="3.024" r="3.024" transform="translate(56.712)" fill="#bfbfbf"/>
            <circle id="Elipse_131" data-name="Elipse 131" cx="3.024" cy="3.024" r="3.024" transform="translate(75.618)" fill="#bfbfbf"/>
            <circle id="Elipse_132" data-name="Elipse 132" cx="3.024" cy="3.024" r="3.024" transform="translate(94.523)" fill="#bfbfbf"/>
            <circle id="Elipse_133" data-name="Elipse 133" cx="3.024" cy="3.024" r="3.024" transform="translate(113.425)" fill="#bfbfbf"/>
          </g>
        </g>
      </g>
    </g>
  </g>
</svg>
