<?xml version="1.0" encoding="utf-8"?>
<!-- Generator: Adobe Illustrator 16.0.0, SVG Export Plug-In . SVG Version: 6.00 Build 0)  -->
<!DOCTYPE svg PUBLIC "-//W3C//DTD SVG 1.1//EN" "http://www.w3.org/Graphics/SVG/1.1/DTD/svg11.dtd">
<svg version="1.1" id="Capa_1" xmlns="http://www.w3.org/2000/svg" xmlns:xlink="http://www.w3.org/1999/xlink" x="0px" y="0px"
	 width="29px" height="31px" viewBox="0 0 29 31" enable-background="new 0 0 29 31" xml:space="preserve">
<g enable-background="new    ">
	<path fill="#FE4A49" d="M28.04,20.964c-0.108,2.173-0.605,4.099-2.191,5.685c-1.587,1.593-3.512,2.089-5.686,2.192
		c-2.24,0.127-8.955,0.127-11.195,0c-2.173-0.109-4.093-0.605-5.685-2.192c-1.592-1.586-2.089-3.512-2.192-5.685
		c-0.127-2.24-0.127-8.955,0-11.195c0.109-2.174,0.6-4.1,2.192-5.686S6.8,2,8.968,1.897c2.24-0.127,8.955-0.127,11.195,0
		c2.174,0.108,4.099,0.605,5.686,2.191c1.593,1.587,2.089,3.512,2.191,5.686C28.168,12.015,28.168,18.724,28.04,20.964z
		 M25.691,15.369c0-1.974,0.163-6.212-0.545-7.998c-0.479-1.193-1.393-2.107-2.58-2.58c-1.779-0.702-6.023-0.545-7.998-0.545
		c-1.974,0-6.212-0.163-7.998,0.545C5.377,5.27,4.463,6.184,3.991,7.371c-0.703,1.779-0.545,6.024-0.545,7.998
		s-0.164,6.212,0.545,7.998c0.478,1.192,1.393,2.107,2.579,2.579c1.78,0.702,6.024,0.545,7.998,0.545
		c1.975,0,6.213,0.164,7.998-0.545c1.193-0.479,2.107-1.393,2.58-2.579C25.854,21.587,25.691,17.343,25.691,15.369z M21.525,15.369
		c0,3.851-3.105,6.957-6.957,6.957c-3.851,0-6.957-3.106-6.957-6.957s3.106-6.957,6.957-6.957
		C18.42,8.412,21.525,11.519,21.525,15.369z M19.092,15.369c0-2.495-2.029-4.523-4.523-4.523s-4.522,2.028-4.522,4.523
		c0,2.494,2.034,4.522,4.522,4.522S19.092,17.863,19.092,15.369z M21.811,9.75c-0.902,0-1.623-0.727-1.623-1.622
		c0-0.896,0.727-1.623,1.623-1.623c0.896,0,1.622,0.727,1.622,1.623C23.433,9.029,22.706,9.75,21.811,9.75z"/>
</g>
</svg>
